# File created by Blade
# Date/Time:  Tue Sep 30 19:08:00 2014
#---------------------------------------------------------
:version 1.10
:name HOM
:units
  mass 1.0
  length 1.000000
  angle deg
:documentation
     Acclaim Skeleton File
:root
   axis xyz
   order TX TY TZ RX RY RZ
   position 0.000000 0.000000 0.000000
   orientation 0 0 0
:bonedata
   begin
      id 1
      name Spine_dum
      direction 0.000000 1.000000 0.000000
      length 7.508948
      axis 0.0 0.0 0.0 xyz
   end
   begin
      id 2
      name LeftUpLeg_dum
      direction 1.000000 0.000000 0.000000
      length 3.000560
      axis 0.0 0.0 0.0 xyz
   end
   begin
      id 3
      name RightUpLeg_dum
      direction -1.000000 0.000000 0.000000
      length 3.000560
      axis 0.0 0.0 0.0 xyz
   end
   begin
      id 4
      name Spine
      direction 0.000000 1.000000 0.000000
      length 0.000000
      axis 0.0 0.0 0.0 xyz
      dof rx ry rz
   end
   begin
      id 5
      name Spine_dum1
      direction 0.000000 1.000000 0.000000
      length 13.861154
      axis 0.0 0.0 0.0 xyz
   end
   begin
      id 6
      name Spine_dum2
      direction 0.000000 1.000000 0.000000
      length 8.204781
      axis 0.0 0.0 0.0 xyz
   end
   begin
      id 7
      name Spine_dum3
      direction 0.000000 1.000000 0.000000
      length 8.204781
      axis 0.0 0.0 0.0 xyz
   end
   begin
      id 8
      name Head
      direction 0.000000 1.000000 0.000000
      length 4.527550
      axis 0.0 0.0 0.0 xyz
      dof rx ry rz
   end
   begin
      id 9
      name LeftShoulder
      direction 1.000000 0.000000 0.000000
      length 6.635956
      axis 0.0 0.0 -90.0 xyz
      dof rx ry rz
   end
   begin
      id 10
      name LeftArm
      direction 1.000000 0.000000 0.000000
      length 10.274218
      axis 0.0 0.0 -90.0 xyz
      dof rx ry rz
   end
   begin
      id 11
      name LeftForeArm
      direction 1.000000 0.000000 0.000000
      length 8.522147
      axis 0.0 0.0 -90.0 xyz
      dof ry rz rx
   end
   begin
      id 12
      name LeftHand
      direction 0.000000 0.000000 0.000000
      length 0.000000
      axis 0.0 0.0 -90.0 xyz
      dof rx ry rz
   end
   begin
      id 13
      name LeftHand_dum1
      direction 0.000000 0.000000 0.000000
      length 0.000000
      axis 0.0 0.0 -90.0 xyz
   end
   begin
      id 14
      name LeftHand_dum2
      direction 1.000000 0.000000 0.000000
      length 3.937000
      axis 0.0 0.0 -90.0 xyz
   end
   begin
      id 15
      name LeftHandThumb1
      direction 0.000000 0.000000 1.000000
      length 3.937000
      axis 0.0 0.0 -90.0 xyz
      dof rx rz ry
   end
   begin
      id 16
      name RightShoulder
      direction -1.000000 0.000000 0.000000
      length 6.635956
      axis 0.0 0.0 90.0 xyz
      dof rx ry rz
   end
   begin
      id 17
      name RightArm
      direction -1.000000 0.000000 0.000000
      length 10.274218
      axis 0.0 0.0 90.0 xyz
      dof rx ry rz
   end
   begin
      id 18
      name RightForeArm
      direction -1.000000 0.000000 0.000000
      length 8.522147
      axis 0.0 0.0 90.0 xyz
      dof ry rz rx
   end
   begin
      id 19
      name RightHand
      direction 0.000000 0.000000 0.000000
      length 0.000000
      axis 0.0 0.0 90.0 xyz
      dof rx ry rz
   end
   begin
      id 20
      name RightHand_dum1
      direction 0.000000 0.000000 0.000000
      length 0.000000
      axis 0.0 0.0 90.0 xyz
   end
   begin
      id 21
      name RightHand_dum2
      direction -1.000000 0.000000 0.000000
      length 3.937000
      axis 0.0 0.0 90.0 xyz
   end
   begin
      id 22
      name RightHandThumb1
      direction 0.000000 0.000000 1.000000
      length 3.937000
      axis 0.0 0.0 90.0 xyz
      dof rx rz ry
   end
   begin
      id 23
      name LeftUpLeg
      direction 0.000000 -1.000000 0.000000
      length 16.490845
      axis 0.0 0.0 0.0 xyz
      dof rx ry rz
   end
   begin
      id 24
      name LeftLeg
      direction 0.000000 -1.000000 0.000000
      length 14.556576
      axis 0.0 0.0 0.0 xyz
      dof rx ry rz
   end
   begin
      id 25
      name LeftFoot
      direction 0.000000 -0.258819 0.965926
      length 4.831116
      axis 15.0 0.0 0.0 xyz
      dof rx ry rz
   end
   begin
      id 26
      name LeftToeBase
      direction 0.000000 0.000000 1.000000
      length 2.952750
      axis 0.0 0.0 0.0 xyz
      dof rx ry rz
   end
   begin
      id 27
      name RightUpLeg
      direction 0.000000 -1.000000 0.000000
      length 16.490845
      axis 0.0 0.0 0.0 xyz
      dof rx ry rz
   end
   begin
      id 28
      name RightLeg
      direction 0.000000 -1.000000 0.000000
      length 14.556576
      axis 0.0 0.0 0.0 xyz
      dof rx ry rz
   end
   begin
      id 29
      name RightFoot
      direction 0.000000 -0.258819 0.965926
      length 4.831116
      axis 15.0 0.0 0.0 xyz
      dof rx ry rz
   end
   begin
      id 30
      name RightToeBase
      direction 0.000000 0.000000 1.000000
      length 2.952750
      axis 0.0 0.0 0.0 xyz
      dof rx ry rz
   end
:hierarchy
   begin
      root Spine_dum LeftUpLeg_dum RightUpLeg_dum
      Spine_dum Spine
      LeftUpLeg_dum LeftUpLeg
      RightUpLeg_dum RightUpLeg
      Spine Spine_dum1 Spine_dum2 Spine_dum3
      Spine_dum1 Head
      Spine_dum2 LeftShoulder
      Spine_dum3 RightShoulder
      LeftShoulder LeftArm
      LeftArm LeftForeArm
      LeftForeArm LeftHand
      LeftHand LeftHand_dum1 LeftHand_dum2
      LeftHand_dum1 LeftHandThumb1
      RightShoulder RightArm
      RightArm RightForeArm
      RightForeArm RightHand
      RightHand RightHand_dum1 RightHand_dum2
      RightHand_dum1 RightHandThumb1
      LeftUpLeg LeftLeg
      LeftLeg LeftFoot
      LeftFoot LeftToeBase
      RightUpLeg RightLeg
      RightLeg RightFoot
      RightFoot RightToeBase
   end

# File created by Blade
# Date/Time:  Thu Sep 25 19:43:58 2014
# Frame Rate: 120.000 fps
#------------------------------------------------------
:FULLY-SPECIFIED
:DEGREES
44
root -3.256312 32.941730 -2.344786 12.094856 1.141594 -1.110884
Spine -14.081421 4.388223 0.336461
Head -10.033601 -5.744436 8.964290
LeftShoulder -15.481267 16.566379 26.334033
LeftArm 16.948193 -24.392915 -27.159610
LeftForeArm 12.399772 -0.000000 13.074366
LeftHand -24.835326 -0.000000 -10.053451
LeftHandThumb1 -26.253704 0.000000 33.147579
RightShoulder -22.380563 15.372505 -39.225340
RightArm -1.694664 9.181539 24.812699
RightForeArm -30.113584 -0.000000 14.658998
RightHand -10.375030 -0.000000 13.714087
RightHandThumb1 -24.326973 -0.000000 -32.862282
LeftUpLeg -6.202372 5.922015 1.031402
LeftLeg -1.168681 -0.000000 0.000000
LeftFoot -10.907628 6.524372 -14.867791
LeftToeBase 10.406205 -0.000000 -0.000000
RightUpLeg -8.100860 -3.098418 0.908508
RightLeg 1.879700 -0.000000 -0.000000
RightFoot -8.897186 -5.507643 2.046719
RightToeBase 1.167522 -0.000000 -0.000000
45
root -3.259946 32.941869 -2.345398 12.094303 1.151072 -1.108665
Spine -14.077033 4.376774 0.349453
Head -10.005093 -5.754402 8.925273
LeftShoulder -15.460509 16.546641 26.335547
LeftArm 16.922271 -24.405477 -27.166991
LeftForeArm 12.409957 -0.000000 13.069066
LeftHand -24.820446 -0.000000 -10.040640
LeftHandThumb1 -26.253704 0.000000 33.147579
RightShoulder -22.358649 15.362372 -39.250627
RightArm -1.749152 9.240197 24.834559
RightForeArm -30.134052 -0.000000 14.734833
RightHand -10.314719 -0.000000 13.824865
RightHandThumb1 -24.326973 -0.000000 -32.862282
LeftUpLeg -6.204703 5.923211 1.035493
LeftLeg -1.171162 -0.000000 0.000000
LeftFoot -10.900233 6.529326 -14.870515
LeftToeBase 10.359416 -0.000000 -0.000000
RightUpLeg -8.100783 -3.105432 0.917270
RightLeg 1.878300 -0.000000 -0.000000
RightFoot -8.894431 -5.540104 1.985959
RightToeBase 1.178241 -0.000000 -0.000000
46
root -3.263106 32.942222 -2.345792 12.093866 1.156482 -1.102998
Spine -14.071550 4.371858 0.349172
Head -9.983603 -5.760359 8.912273
LeftShoulder -15.454071 16.551748 26.335266
LeftArm 16.926018 -24.427089 -27.179886
LeftForeArm 12.400903 -0.000000 13.073650
LeftHand -24.857479 -0.000000 -10.043896
LeftHandThumb1 -26.253704 0.000000 33.147579
RightShoulder -22.345001 15.354793 -39.249486
RightArm -1.759878 9.274150 24.846133
RightForeArm -30.137874 0.000000 14.745687
RightHand -10.308722 0.000000 13.834010
RightHandThumb1 -24.326973 -0.000000 -32.862282
LeftUpLeg -6.209627 5.917385 1.036586
LeftLeg -1.161961 -0.000000 0.000000
LeftFoot -10.885737 6.518456 -14.887873
LeftToeBase 10.299941 -0.000000 -0.000000
RightUpLeg -8.096119 -3.119308 0.917170
RightLeg 1.870013 -0.000000 -0.000000
RightFoot -8.892268 -5.513776 2.010719
RightToeBase 1.175117 -0.000000 -0.000000
47
root -3.267074 32.942719 -2.346367 12.091432 1.165838 -1.108250
Spine -14.065269 4.368892 0.359577
Head -9.959211 -5.766881 8.898877
LeftShoulder -15.437668 16.525744 26.319147
LeftArm 16.942619 -24.395627 -27.139840
LeftForeArm 12.435779 -0.000000 12.964713
LeftHand -24.755885 0.000000 -9.996000
LeftHandThumb1 -26.253704 0.000000 33.147579
RightShoulder -22.332035 15.360546 -39.231930
RightArm -1.766168 9.272959 24.831845
RightForeArm -30.133154 0.000000 14.755862
RightHand -10.310559 -0.000000 13.827898
RightHandThumb1 -24.326973 -0.000000 -32.862282
LeftUpLeg -6.224765 5.977407 1.043751
LeftLeg -1.132119 -0.000000 0.000000
LeftFoot -10.891162 6.454864 -14.874178
LeftToeBase 10.339261 -0.000000 -0.000000
RightUpLeg -8.094125 -3.150508 0.934891
RightLeg 1.868151 -0.000000 -0.000000
RightFoot -8.883317 -5.493584 2.003074
RightToeBase 1.144334 -0.000000 -0.000000
